/* XPM */
static char *_0263ca10cef4a85a27398afc7d5add8hQoqsbzkYjse9euV[] = {
/* columns rows colors chars-per-pixel */
"56 56 219 2 ",
"   c None",
".  c #B29C1D",
"X  c #B29B16",
"o  c #AFA11B",
"O  c #B2A51D",
"+  c #B2A91C",
"@  c #B69C20",
"#  c #AFA62C",
"$  c #B2AA24",
"%  c #BFAC26",
"&  c #B0A72F",
"*  c #BDA62E",
"=  c #B2AA2A",
"-  c #BEA92D",
";  c #B4A320",
":  c #AFA931",
">  c #AFA534",
",  c #BDA634",
"<  c #B3AB33",
"1  c #BEA933",
"2  c #BDA63C",
"3  c #B6AB3E",
"4  c #BDA93B",
"5  c #B2A63F",
"6  c #BEB237",
"7  c #C2AB2D",
"8  c #C9B22E",
"9  c #CBBD2A",
"0  c #C5B32A",
"q  c #C2A635",
"w  c #C2AA33",
"e  c #C3A63A",
"r  c #C2A93A",
"t  c #C8AD39",
"y  c #C3B536",
"u  c #CCB434",
"i  c #CBBD37",
"p  c #C3B43A",
"a  c #CAB33A",
"s  c #C5B838",
"d  c #CCBD3A",
"f  c #C5B835",
"g  c #D2BC33",
"h  c #D1BC3A",
"j  c #D9C52D",
"k  c #D6C135",
"l  c #DDC635",
"z  c #DECA35",
"x  c #D5C13C",
"c  c #DCC53B",
"v  c #D6CD3B",
"b  c #DECA3A",
"n  c #DDD535",
"m  c #E1C636",
"M  c #E1C935",
"N  c #E2C73A",
"B  c #E2C93A",
"V  c #E3D534",
"C  c #E3D33C",
"Z  c #E9D63D",
"A  c #E7D93E",
"S  c #E9D93F",
"D  c #BCA641",
"F  c #B5A945",
"G  c #B5A64E",
"H  c #BAA64B",
"J  c #B6AA4B",
"K  c #BBAA49",
"L  c #BCAA43",
"P  c #BDB54C",
"I  c #BEB446",
"U  c #B4A653",
"Y  c #B4A954",
"T  c #B1A65A",
"R  c #B4A95B",
"E  c #BEAA53",
"W  c #B2A660",
"Q  c #C1A541",
"!  c #C2A943",
"~  c #C5B644",
"^  c #CFBF43",
"/  c #C4B54B",
"(  c #CBB64B",
")  c #C4BD4E",
"_  c #CBB94B",
"`  c #D5BD40",
"'  c #C2B553",
"]  c #C6BA52",
"[  c #CBBC52",
"{  c #C6B859",
"}  c #CBBA59",
"|  c #D1BE56",
" . c #D6BF59",
".. c #CFC147",
"X. c #C7C24C",
"o. c #D5C444",
"O. c #DDC643",
"+. c #D6CE44",
"@. c #DCCA45",
"#. c #DBC54A",
"$. c #D4CD4B",
"%. c #DCCA4C",
"&. c #DCD345",
"*. c #D9D34A",
"=. c #DFD84B",
"-. c #CBC354",
";. c #CAC45A",
":. c #C4C05B",
">. c #D7C455",
",. c #DAC554",
"<. c #D4C953",
"1. c #DACA53",
"2. c #D6C259",
"3. c #DDD855",
"4. c #DDD45C",
"5. c #DCD654",
"6. c #E1C641",
"7. c #E1CA42",
"8. c #E0C649",
"9. c #E8CB43",
"0. c #E4D444",
"q. c #EBD544",
"w. c #E6D843",
"e. c #ECDC44",
"r. c #E5D54C",
"t. c #EBD548",
"y. c #EEDD4A",
"u. c #F3DD46",
"i. c #F1DD4A",
"p. c #E5D551",
"a. c #E5D954",
"s. c #ECDB54",
"d. c #E6D75D",
"f. c #EADB5B",
"g. c #E7DA57",
"h. c #F3DE55",
"j. c #EBE045",
"k. c #EEE24A",
"l. c #EFE94E",
"z. c #F3E347",
"x. c #F4E34B",
"c. c #F9E54E",
"v. c #F5EC4E",
"b. c #F9EE4E",
"n. c #F5F14D",
"m. c #F9F14E",
"M. c #EEE752",
"N. c #EEEA5B",
"B. c #EAE657",
"V. c #F4E453",
"C. c #F8E453",
"Z. c #F5ED53",
"A. c #FAEE53",
"S. c #F9E55B",
"D. c #F5ED5B",
"F. c #FAED5B",
"G. c #F3E45D",
"H. c #F6F152",
"J. c #FAF152",
"K. c #F5F15B",
"L. c #FAF15B",
"P. c #F9F85F",
"I. c #CEC562",
"U. c #DEDC61",
"Y. c #D8D469",
"T. c #D7D970",
"R. c #DCDE76",
"E. c #DEDE78",
"W. c #E5DB62",
"Q. c #E7DB67",
"!. c #E2DE76",
"~. c #E6E361",
"^. c #EAE365",
"/. c #ECE36B",
"(. c #EFE96B",
"). c #E8E56A",
"_. c #F7E360",
"`. c #F4EB62",
"'. c #FAED61",
"]. c #F0E46B",
"[. c #F3EC6B",
"{. c #F9EC6A",
"}. c #F5F263",
"|. c #F9F263",
" X c #F5F36C",
".X c #FAF46B",
"XX c #FBF86C",
"oX c #E6E275",
"OX c #F3EF72",
"+X c #F3EE78",
"@X c #F6F475",
"#X c #FBF673",
"$X c #FBF975",
"%X c #F5F47C",
"&X c #FAF67D",
"*X c #F7F97D",
"=X c #F9F97C",
"-X c #DEDC83",
";X c #E1DF87",
":X c #EBE586",
">X c #E9E48B",
",X c #F2EC8D",
"<X c #F5F584",
"1X c #F9F682",
"2X c #FAF685",
"3X c #FAF682",
"4X c #F6F882",
"5X c #F9F881",
"6X c #FEFA81",
"7X c #FDFA85",
"8X c #FAF883",
"9X c #F7F789",
"0X c #F9F689",
"qX c #FAF68A",
"wX c #F9FA8C",
"eX c #E9E694",
"rX c #EEEA99",
"tX c #F7F396",
"yX c #F9F593",
/* pixels */
"                                                                                                                ",
"                                                                                                                ",
"                                                -.X.3.[.(.OXf.5.4.Y.                                            ",
"                                        Y.oX+X[.`.P.Z.m.J.b.J.H.K. X<XeXeX                                      ",
"                                  !.U.N.K.H.H.D.L.Z.b.m.b.b.m.Z.K.XX#X5X0XyX>XrX                                ",
"                              /.Q.(.}.Z.n.n.J.J.A.Z.A.A.b.b.J.L.|.#X&X6X1X<X0XyX>X,X                            ",
"                            4.D.F.F.F.A.A.A.A.b.b.J.A.Z.A.m.Z.D..X$X&X&X1X1X1X1X2X2X:X                          ",
"                        } W.'.v.A.A.J.A.A.Z.A.A.z Z V V V C C C 0.|..X#X&X%X5X4X8X%XqXtX-X                      ",
"                      [ %.B z.v.J.J.v.v.v.e.C C C v.A.A.A.Z.V.D.&.=.*.B. X@X=X1X1X7X4X<X0XE.                    ",
"                    ] O.m m M b.b.A.e.n C k.v.v.J.Z.D.F.F.D.'.$X@X&X=X^.3.$.^.&X6X&X1X2X5X4XT.                  ",
"                  / @.M M N B x.z.e.S j.b.J.J.n.H.K.K.}.D.D. X&X8X2X7X6X&X^.W.^.].&X&X3X&X$X=XR.                ",
"                [ @.M m N 6.B t.q.e.b.J.m.v.n.H.P.|.}..X}.}.$X7XqX0X3X&X=X5X5X/.W.].3XqX1X#X=X4XR.              ",
"              } #.m M N B b b e.A.J.b.v.Z.H.D.|.}.+.+.+.&.+.$.<.-.0X7X&X=X&X5X3X&X^./.&X3X1X&X%X9X;X            ",
"              ,.N m N 6.b z j.Z.H.n.n.H.J.D.`.{.[.f r.r.0.r.a.4.> %X=X=X=X=X=X=X=X@X~.^.3X2X7X1X9XtX            ",
"            _ 6.m M z b b b x.J.H.n.n.H.A.L.D.'.`.d '.F.A.L..X X< %X=X=X*X*X*X=X=X=X@X~.(.&X=X=X<XwX:X          ",
"          2.8.N M z z e.q.b V.Z.m.J.v.J.A.J.Z.'.`.i F.A.A.K.L.`.< %X=X*X4X4X*X=X=X&X&X&X^.[.$X=XwX@X1X,X        ",
"          | O.N N z C e.M M y.Z.J.v.J.Z.H.H.Z.L.`.i F.J.J.D.K.D.< %X=X4X4X4X*X=X=X1X1X1X&X4.[.=X@X=X&X:X        ",
"        I.1.6.N 9.b C z l M B z.A.A.A.Z.Z.H.Z.|.`.i F.J.J.D.D.N.: 3X5X1X<X4X4X*X=X1X1X1X3XQ.(.=X@X$X$X%X!.      ",
"        -.@.N N 7.t.t.M M l l M z.A.A.J.H.H.H.|.`.i F.A.A.A.D.N.& 1X5X1X9X<X4X*X*X1X1X8X&X3X4.~.XXXX|.`.U.      ",
"        +.b N N 7.C.z z M M m M M z.A.A.Z.H.H.|.`.i F.A.b.J.A.N.# 3X5X1X0X<X4X*X=X1X1X1X1X&X^.*.}.L.F.Z.}.Y.    ",
"      -.v z N M B q.B z m N B M z M z.A.H.H.H.|.`.i F.A.b.m.J.Z.# &X&X1X2X1X5X=X=X=X=X=X=X$X X&.D.A.A.b.H.;.    ",
"      -.b z N B i.M M l M M N m M z b y.J.Z.D.|.`.i F.J.b.m.n.M.= &X&X&X1X&X&X=X=X=X=X$XXX.X|.k.w.A.A.b.H.).    ",
"      <.l M N B x.M M m M N N N M M z C k.Z.J.F.`.d F.A.m.m.n.M.= &X=X=X=X=X$X$X$X$X#X.XK.K.J.A.C A.A.b.Z.OX    ",
"    ' %.7.B M M M j M M B N N N m M z z b k.A.F.`.d F.A.m.J.H.V.$ #X#X#X#X#X.X.X.X.X|.K.H.n.H.v.C x.A.A.L.[.:.  ",
"    I @.6.B l u.M z M N N M N N m M M z z z k.'.`.i F.J.b.J.H.l.$ [.}.}.`.}.K.K.K.D.D.H.n.n.v.b.C Z v.A.D.`.)   ",
"    / 8.N N B C.z b b N m M B N N M M M M l C V.G.i F.J.m.m.H.l.+ `.D.D.D.D.Z.H.H.D.Z.b.n.H.Z.L.u.Z J.Z.D.}.)   ",
"    / 6.N m l x.b b B M M M N N N M N N M M z 7.h.d F.J.J.Z.H.v.+ D.D.D.D.Z.n.n.J.J.m.b.n.Z.V.F.c.V v.H.H.D.X.  ",
"    / O.N m B C.7.@.B M M z z M M M N N m M z 7.s.i F.H.H.Z.H.v.+ D.H.J.J.m.m.m.m.b.b.m.v.K.D.F.c.V m.n.n.D.)   ",
"    ~ B m m M C.b b b m M M z b M M B N N N b 7.s.9 L.H.H.v.J.V.O F.A.J.J.A.m.m.m.m.b.m.H.K.D.F.v.n n.n.J.F.)   ",
"    ~ b B m z V.C z l B M m M z M M N N N B b b V.9 L.H.J.n.n.x.O `.L.A.A.A.A.A.n.v.v.m.v.Z.L.F.Z.n n.m.A.F.[   ",
"    ~ b m B M C.b z M m M M b z M M N N N B b B y.9 L.J.Z.n.J.Z.o r.A.A.A.A.A.A.J.J.J.A.A.H.L.F.v.n H.A.F.'._   ",
"    / 7.N m M C.b b B m b B M z M M N N N M l b V.9 D.F.J.n.n.V.O @.C e.Z.A.A.A.A.A.A.A.A.A.v.J.b.v.A.F.S.'.-.  ",
"    J a c B z z.C x c N B N N M M M M M M l M B i.9 F.F.J.v.b.V.; O.l z B z z z C x.A.V.V.L.J.z.V b.A.F.F.p.P   ",
"    T 4 g b B C V.7 t 6.N N M M M M M M M m B B i.j C.V.A.J.J.V.. O.z M b M b z z z b b y.V.z.V V z.x.V.r.o.P   ",
"      K u k l b V.- q u c B N N N M M M M M l z C.b b 0.k.A.A.V.O @.b z M M b b z l M M B z z z z.z b z b 1.    ",
"      U 1 % u 7.s.o.q q u c 7.7.7.B N M M M m B c.B z z z A e.V.. #.b M M N N N M M N m M M l z C.M b z v ;.    ",
"      Y < - * u ` f.- q 7 u u h O.7.B N M M l B C.b l b z l l t.. @.l M N N N N N N N m M M B t.t.b B z v ]     ",
"        3 , r e a _.O.* q w 7 7 u u O.c c B M M C.M l M B z l c . #.M M M N N N M N N M M l z V.7.N c b $.      ",
"        J L Q Q q @.r.- q q w w * w #.#.7.c B b h.B M z b z z k @ #.M z M N N N N N M l l M i.0.7.6.6.@.-.      ",
"          K 2 Q e 7 o.%.* r q q w w t w 7 7 c 7.C.M m M l z b c @ #.z z b M M M M M M M m M B b 7.6.6.,.        ",
"          G r e t * h p.1 q , q , , , 1 w 7 h c S.B M M l z b c . #.b M b M M M M M b b B u.B z b N 6.|         ",
"          H 4 q q 4 1 ^ 1.r , , , , r , , * w 8 h.B m l z M z c @ #.b b z b b b b b b b q.q.j z B 7.8. .        ",
"            H D ! 2 2 , o.%.w , q , , , r q w 7 C.b l z M l z c . O.c M z M z M z M B 0.b B M z b O.(           ",
"              G K D Q 2 - x @.7 - q , r r , w w S.y.e.e.e.e.y.t.X O.O.N M l M M l B y.w.b N N m 7.>.            ",
"              T K 2 2 r q , o.%.- , , r 2 e r q #.#.@.@.c 7.O.c 8 O.B c b M b b B i.0.b B M M M %.{             ",
"                Y L 1 , e 2 4 ..d.%.1 1 , 2 2 2 2 2 r , , , q 7 u u 7.b B b b b y.0.b 6.l z z o.]               ",
"                  G 4 1 r ! 2 , d x s.O.- w 4 D Q D 2 2 4 r 2 4 , 7 8 g b z y.C 0.7.c N B z %.'                 ",
"                    G 3 2 D ! r * - c S.h.h 1 p 4 4 4 4 4 4 4 , t w 7 c c.x.Z M c O.N N l o.'                   ",
"                      U J K 2 , q w w 7 h s.h.p.+.f s y 6 s s s @.s.V.q.M M M m m 7.N 6.%.]                     ",
"                        T U D r e q e r q 7 % 0 s.a.f.f.f.f.g.g.s.c x k k M m B B M O.>.{                       ",
"                            H 4 2 ! Q e e r , 7 7 - - 1 - - w w w * w 7 7 u #.@.@.@._                           ",
"                                U G D 2 4 , e r q q q q q q e q q q , w 1 , ( [ } [                             ",
"                                    Y J 3 4 4 D 2 e e q e e e e e r , 4 3 F U                                   ",
"                                        T R U E H 2 4 , q , , 4 4 D J U W                                       ",
"                                                T Y J F 5 F F J Y R                                             ",
"                                                                                                                "
};
