/* XPM */
static char *a0e49a02d02249cde3a6a3fd99802dd7OhRgFVeOQ8UdSeb7[] = {
/* columns rows colors chars-per-pixel */
"56 56 137 2 ",
"   c None",
".  c #010123",
"X  c #02012A",
"o  c #000036",
"O  c #00003E",
"+  c #030455",
"@  c #02035C",
"#  c #040564",
"$  c #03026D",
"%  c #020175",
"&  c #02017D",
"*  c #010184",
"=  c #0B0781",
"-  c #0C0A84",
";  c #01018B",
":  c #06088E",
">  c #010193",
",  c #070A91",
"<  c #01019B",
"1  c #0A029A",
"2  c #040E9E",
"3  c #0102A3",
"4  c #0804A1",
"5  c #040EA0",
"6  c #0102AC",
"7  c #0901AB",
"8  c #0511A2",
"9  c #081FAF",
"0  c #0202B3",
"q  c #040BB7",
"w  c #0103BC",
"e  c #050BBC",
"r  c #0A20B3",
"t  c #0002C6",
"y  c #0306C5",
"u  c #0005C6",
"i  c #0104C7",
"p  c #0705C4",
"a  c #0103C4",
"s  c #0208C5",
"d  c #010AC6",
"f  c #030AC4",
"g  c #080FC4",
"h  c #0003C9",
"j  c #0002CA",
"k  c #0005C9",
"l  c #0106C8",
"z  c #0405C9",
"x  c MediumBlue",
"c  c #0104CA",
"v  c #0309CB",
"b  c #030BCB",
"n  c #010DCA",
"m  c #000BCD",
"M  c #050BCE",
"N  c #020CCC",
"B  c #0710C2",
"V  c #071CCD",
"C  c #061BCE",
"Z  c #091BCF",
"A  c #081ACE",
"S  c #0204D2",
"D  c #030AD3",
"F  c #0409D3",
"G  c #070AD2",
"H  c #030ED2",
"J  c #010ED5",
"K  c #040FD4",
"L  c #030CD3",
"P  c #090FD4",
"I  c #0108D9",
"U  c #0309DA",
"Y  c #050FDA",
"T  c #060FDE",
"R  c #040DDA",
"E  c #0311D4",
"W  c #0310D5",
"Q  c #0312D5",
"!  c #0A15D4",
"~  c #071BD0",
"^  c #0C1BD6",
"/  c #0B1AD4",
"(  c #0217DD",
")  c #0412DC",
"_  c #0A15DE",
"`  c #0A14DE",
"'  c #071BDD",
"]  c #051BDD",
"[  c #0918DF",
"{  c #0A1CDC",
"}  c #1017DC",
"|  c #1017DD",
" . c #121CD8",
".. c #0922C6",
"X. c #0A22C7",
"o. c #0921C8",
"O. c #0A23CC",
"+. c #0A22CC",
"@. c #0B24D0",
"#. c #020EE0",
"$. c #030FE1",
"%. c #030FE1",
"&. c #0714E5",
"*. c #0515E3",
"=. c #0817E1",
"-. c #0B15E2",
";. c #0A16E2",
":. c #061FE4",
">. c #051DE7",
",. c #051CE4",
"<. c #091DE5",
"1. c #0A1DE4",
"2. c #0A1DE6",
"3. c #0B1BE3",
"4. c #0416EC",
"5. c #051EE9",
"6. c #061EE8",
"7. c #0418ED",
"8. c #071AEE",
"9. c #051DEB",
"0. c #081FE9",
"q. c #0A1EE9",
"w. c #0B1FEA",
"e. c #0C1CEB",
"r. c #091CEE",
"t. c #091EEE",
"y. c #0A1DEB",
"u. c #111BE4",
"i. c #0A1DF1",
"p. c #0A1EF0",
"a. c #0720E2",
"s. c #0722E6",
"d. c #0520E3",
"f. c #0822E6",
"g. c #0921E6",
"h. c #0421EA",
"j. c #0921EA",
/* pixels */
"                                              6 y a 3 r 2 ..^ } e * $ > *                                       ",
"                                          = < w v H V o.O.Z t t w < : 4 ; # @ # #                               ",
"                                    *   1 3 w y _ q.<.<.<.-.D t a 6 3 3 > & & * % @                             ",
"                                & > 3 7 6 w z -.&.$.8.i.e.Y M w 6 6 3 < > ; ; ; & $                             ",
"                  % % %     $ & ; < 6 0 0 p G T I $.8.r.[ y w 6 < < < > ; ; ; * * & * % %                       ",
"                  & & % % & & ; > < 6 0 w y y l J >.q.K d w 0 3 > > > > ; ; * * * * * & & & %                   ",
"                $ * & % & * > ; > < 6 0 w w a n a.s.' d w 0 6 4 < ; ; ; ; * * * * * & & * * &                   ",
"                $ * * & & * > > > < 3 0 w a l E >.f.v a w 0 < < < ; ; * * * ; ; * & & & & * &                   ",
"            + $ & * * * * ; > < > < 3 0 w h G q.6.( m a a 6 > ; > ; * & & * ; ; * & & & & & & & $               ",
"        $ & & * * & & * ; > > < < < 3 0 a x I r.6.E h t w 3 ; * * * & & & * ; * & % & & & & & & & & % %         ",
"          * ; * & & & * ; ; * ; < 3 6 w t S $.,.f.E t t w 3 ; * * * & & & ; ; * & % & & & & * & & * * &         ",
"        % * * & & & & * ; * & * > 3 0 w t h ) :.a.N P a 6 < ; ; * * & & * ; * * & & & & * ; ; * & & & %         ",
"        & * * * & & & * * * * * > 3 6 0 w w n a.s.( ;.y 3 > ; ; ; * & & * * * & * * * * ; ; ; * * & %           ",
"        & * * * & & & & * ; ; ; ; < 3 6 0 w w Q h.r.U w < ; ; ; ; * & & & & & * ; ; ; * * ; ; ; ; * %           ",
"  + @ $ & * * * & % % & * ; > > ; ; < 6 w w y Q h.q.F w 3 > ; ; ; * & & & * * ; ; > ; * & * > < > ; & $         ",
"  # % & * * ; * * & & & * ; > ; * ; < 0 a a v s.h.=.l w < ; ; * * * & & * * * ; ; > ; * * ; < < > ; ; &         ",
"  # * ; ; * * ; ; * * * & * ; ; * ; 3 0 a t L h.h.J t 0 > * & & & & * * * * * ; ; ; ; > > > < < > ; < ; &       ",
"  @ & ; ; * * ; ; ; ; * * & * * * > 3 0 a t D >.>.J a 0 > * * * * * ; ; ; ; ; ; ; ; < 3 3 3 < < < < < < > %     ",
"  @ & ; ; ; * * * * ; ; * & * * * > < 6 w t _ 6.j.J y 0 < > ; ; ; ; > > < < < < < > 3 6 0 0 3 3 3 6 6 6 3 *   . ",
"* * > > ; ; * * & & & * * & & & * > < 3 0 w Q q.6.,.l w 3 > ; ; ; > < 3 6 0 0 0 0 6 6 0 w w 0 0 0 0 0 0 7 * @ X ",
"> 4 3 < > > ; * & & & & & & % & * > > < 6 0 n ) *.r.D w 3 < > ; ; > 3 6 0 w a t a w 0 w t a w w w w w 0 0 1   o ",
"  , 3 3 < > ; ; * & & & & & & & * ; > > < 6 f W ) e.U y 6 4 > > < 3 6 0 w p a t a w w w l S x h a w a p w 3 - + ",
"  < 0 6 < > ; ; ; * * * * * & & * ; ; ; > < 0 w H 3.e.y 3 > > 4 3 6 e v P ` D D m y w n ) *.I G y w s P y 0 < & ",
"w w w 6 < > > > ; * * * ; ; * * * ; * * ; < 6 0 a P u.y < > < 3 0 a K ) y.8.r.t.6.) Q :.:.>.r.j.E n t T ;.l w 0 ",
"} l t w 6 3 4 < ; * * ; ; ; * * ; ; * * ; < 3 6 0 f ! a 3 < 6 w N ) R *.8.t.9.h.h.h.h.s.a.f.6.6.>.a.J I &.` l y ",
"^ y D M w w 6 < > ; ; ; ; * * * ; ; * ; ; > < < 3 3 e g 3 3 e ! =.r.t.r.,.D L L ] s.t.*.N N E ' f.a.h.*.%.q.L a ",
"..Z -.Y y w 0 0 6 3 3 < > ; ; ; ; ; ; ; > 4 < > > < 3 q 3 3 e ^ 1.=.J m y a w a l D F ;.P t h m N ' >.4.i.<.C 3 ",
"8 O.<.e.;.f w w a a w 6 3 < < < < > > < 3 7 6 < < < 3 6 3 3 6 0 w d w 0 0 6 6 0 w w w y a t t a a y Q i.r.1.o.9 ",
"r O.1.r.e.E a a t h h t y w 0 w 0 6 6 0 0 w f w 0 6 3 6 6 < > < < 6 6 3 < > > < > < < 3 6 w w w w w a =.e.3.@.2 ",
"0 C <.r.&.:.' N D x h P u.G v l t a d v m J =.u. .e 3 3 q 3 < > > < 4 > ; ; ; ; ; ; ; > < 3 3 6 6 0 w y Y *.~ ..",
"y L q.) ) s.:.f.*.J L N *.r.q.=.J J J ,.t.t.q.=.! e 3 3 B e 3 3 < < > ; ; * ; ; * * * ; ; ; ; > 3 6 w w M D t ^ ",
"y v ) &.D L a.>.6.t.j.a.s.6.h.h.6.6.j.9.*.) ) N w 6 < 3 f ^ f 0 6 3 < ; * * ; ; * * ; ; ; * * ; < 4 3 6 w t h _ ",
"6 w l ;.Y a N E r.i.6.:.:.Q E q.q.r.7.y.) H a 0 6 < < 3 l u.P a 0 6 < ; ; * ; * * * ; ; * * * ; > < > < 6 w w w ",
"  < 0 y P d a y F U *.) n w l m F D ` P d e 6 3 1 > > 3 l e.=.H w 0 < > ; ; ; * & & * * * * * ; ; ; > < 3 6 < & ",
"  - 3 w p w w a h x S l w w a t h t l w 0 6 < > > > 1 7 t F e.) P f 6 < > > ; * & & & & & & & * ; ; > < 3 3 : $ ",
"    1 6 0 w w w w w t t w 0 w w a a w 0 6 3 > > ; > 1 6 w D r.*.) n 0 6 < > > * & % & * & & & & * ; > > < 3 1 > ",
"    > 7 0 0 0 0 0 0 w w 0 3 6 6 0 0 6 6 3 < > ; ; > > 3 w l ,.6.q.Q w 0 3 < > * & & & * * * & & * ; ; ; > > ; % ",
"    * 3 6 6 6 3 3 3 6 0 6 3 < < < < < < > > ; ; ; ; ; < 0 y J j.6._ t w 6 < > * * * & * ; ; * * * ; ; ; ; & @ O ",
"    % > 3 < < < < < < 3 3 < ; ; ; ; ; ; ; ; * * * * * > 0 a J >.>.D t a 0 3 > * * * & * * ; ; ; ; * * ; ; &     ",
"      & > < > > > > > > > > ; * * * * * * * * * * * * > 0 t J h.h.L t a 0 3 ; * ; ; * & & * * ; ; * * ; ; * #   ",
"        * > ; > > > ; * ; > > ; ; * * & & & * * * ; ; < w l =.h.s.v a a 0 < ; * ; > ; * & & % & * * * * * % #   ",
"        $ * ; > > > * & * ; > > ; * * & & & * ; ; ; > < w S q.h.Q y w w 6 < ; ; > > ; * & % % & * * * *         ",
"        # % * ; ; ; ; * * ; ; ; * & & & & & * > ; ; ; < w F q.h.Q w w 0 6 3 < > > > ; * & & & & * * * &         ",
"          % & * * ; ; ; * * * * & * * * & & * ; ; ; > 3 y ;.( s.a.n w w 0 6 3 > ; * * * * & & & * * * &         ",
"        % & & & & ; * * & & & & & * ; * & & * * ; ; < 6 a P N a.:.) h t w 0 3 > & & * * * & & & & * *           ",
"        & * * & & * & & & & % & * ; ; * & & * * * ; 3 w h x K j.7.$.S t w 6 < > ; * ; ; * & & & * * *           ",
"        % % & & & & & % * & % & * ; * & & & * * * ; 3 w h x J t.i.I x w 0 3 < > > > > ; * & & * * &             ",
"            # $ % & & & & & & * ; ; * & & * ; > ; > 6 w t D *.6.r.D h w 0 3 > > > > ; * * * * &                 ",
"                % & * * & & & * ; ; * * * ; ; > < < 6 w a m f.>.E l a w 0 3 < > > > * & & * * %                 ",
"                @ % * * & & * * * * * ; ; ; ; < 4 6 0 w d ' f.a.n a w w 0 6 < > ; > * & % & *                   ",
"                  % & & & * * * * * ; ; ; ; > > 3 0 w d E f.>.L y a a w 0 6 < > ; * & % % & &                   ",
"                      $ % * * * ; ; ; ; > < < < 6 w y [ q.7.R D ) G y w 0 6 3 > * %       &                     ",
"                              * ; ; ; > < 3 6 6 w M Y e.r.y.) *.-.l w 6 7 3 > *                                 ",
"                              & * * & > 3 3 6 a h F -.<.1.<.q._ l w 3 1   * %                                   ",
"                                #     ; 4 : < w h t ~ O.o.~ L m w < =                                           ",
"                                      & > $ & e } ^ o.5 r 6 y y 0 * +                                           "
};
