/* XPM */
static char *e264622b5e2b4b78ecac489cccb3ccdfj2zuVYc3XKh7FRbP[] = {
/* columns rows colors chars-per-pixel */
"56 56 12 1 ",
"  c #296BA4",
". c #2972B4",
"X c #4A9BDD",
"o c #297BBC",
"O c #3172B4",
"+ c #296BAC",
"@ c #2163A4",
"# c #4A8BCD",
"$ c #397BBC",
"% c #5AACE6",
"& c #4A83BC",
"* c white",
/* pixels */
"  ..X..o O+@#$  oXo       ..X..o O+@#$  oXo       ..X..o",
"O+  X%   $O   .o.oo.  #$O+  X%   $O   .o.oo.  #$O+  X%  ",
"@#$O.&X    .o.  .X... O+@#$O.&X    .o.  .X... O+@#$O.&X ",
"$O+. $oo O    o oX..o.  $O+. $oo O    o oX..o.  $O+. $oo",
"  #  +@ o  .  ...oX.....  #  +@ o  .  ...oX.....  #  +@ ",
"oX&&  $O.XoooX&X.. X.oo.oX&&  $O.XoooX&X.. X.oo.oX&&  $O",
"XoooX    XooX%Xo. oX&&&XXoooX    XooX%Xo. oX&&&XXoooX   ",
".X o.&o&%o..oXo XXo   O .X o.&o&%o..oXo XXo   O .X o.&o&",
" Xo @ &&X. o....%.       Xo @ &&X. o....%.       Xo @ &&",
"oX&o   o  .X   ..  #$O  oX&o   o  .X   ..  #$O  oX&o   o",
"   o.  .  .X  ..  O+   .   o.  .  .X  ..  O+   .   o.  .",
"     .ooo oo.ooo   $ ...     .ooo oo.ooo   $ ...     .oo",
"        Xoo. .oX.   .o.         Xoo. .oX.   .o.         ",
"  O @..O.X.. ..X ..ooo    O @..O.X.. ..X ..ooo    O @..O",
"@   +@#..X..X .&oooX&   @   +@#..X..X .&oooX&   @   +@#.",
"   $O @ &&X..X&oo o&&  .   $O @ &&X..X&oo o&&  .   $O @ ",
".oo +@ $.&XX%X&o o o &  .oo +@ $.&XX%X&o o o &  .oo +@ $",
"   o   +. &.X&+@#$  & &    o   +. &.X&+@#$  & &    o   +",
"o # .    o&. &$O+@#    &o # .    o&. &$O+@#    &o # .   ",
" o .   .X&. .. @#$O+...$ o .   .X&. .. @#$O+...$ o .   .",
"   @#$Oo.  O+.o O+@..&X&   @#$Oo.  O+.o O+@..&X&   @#$Oo",
"&     o   @#$O.o   &...&&     o   @#$O.o   &...&&     o ",
"oX&XXoX O+@#$O. oo&   o&oX&XXoX O+@#$O. oo&   o&oX&XXoX ",
"&Xo..oX. #$O+@.& oX&Xo .&Xo..oX. #$O+@.& oX&Xo .&Xo..oX.",
"  ..X..o O+@#$  oXo       ..X..o O+@#$  oXo       ..X..o",
"O+  X%   $O   .o.oo.  #$O+  X%   $O   .o.oo.  #$O+  X%  ",
"@#$O.&X    .o.  .X... O+@#$O.&X    .o.  .X... O+@#$O.&X ",
"$O+. $oo O    o oX..o.  $O+. $oo O    o oX..o.  $O+. $oo",
"  #  +@ o  .  ...oX.....  #  +@ o  .  ...oX.....  #  +@ ",
"oX&&  $O.XoooX&X.. X.oo.oX&&  $O.XoooX&X.. X.oo.oX&&  $O",
"XoooX    XooX%Xo. oX&&&XXoooX    XooX%Xo. oX&&&XXoooX   ",
".X o.&o&%o..oXo XXo   O .X o.&o&%o..oXo XXo   O .X o.&o&",
" Xo @ &&X. o....%.       Xo @ &&X. o....%.       Xo @ &&",
"oX&o   o  .X   ..  #$O  oX&o   o  .X   ..  #$O  oX&o   o",
"   o.  .  .X  ..  O+   .   o.  .  .X  ..  O+   .   o.  .",
"     .ooo oo.ooo   $ ...     .ooo oo.ooo   $ ...     .oo",
"        Xoo. .oX.   .o.         Xoo. .oX.   .o.         ",
"  O @..O.X.. ..X ..ooo    O @..O.X.. ..X ..ooo    O @..O",
"@   +@#..X..X .&oooX&   @   +@#..X..X .&oooX&   @   +@#.",
"   $O @ &&X..X&oo o&&  .   $O @ &&X..X&oo o&&  .   $O @ ",
".oo +@ $.&XX%X&o o o &  .oo +@ $.&XX%X&o o o &  .oo +@ $",
"   o   +. &.X&+@#$  & &    o   +. &.X&+@#$  & &    o   +",
"o # .    o&. &$O+@#    &o # .    o&. &$O+@#    &o # .   ",
" o .   .X&. .. @#$O+...$ o .   .X&. .. @#$O+...$ o .   .",
"   @#$Oo.  O+.o O+@..&X&   @#$Oo.  O+.o O+@..&X&   @#$Oo",
"&     o   @#$O.o   &...&&     o   @#$O.o   &...&&     o ",
"oX&XXoX O+@#$O. oo&   o&oX&XXoX O+@#$O. oo&   o&oX&XXoX ",
"&Xo..oX. #$O+@.& oX&Xo .&Xo..oX. #$O+@.& oX&Xo .&Xo..oX.",
"  ..X..o O+@#$  oXo       ..X..o O+@#$  oXo       ..X..o",
"O+  X%   $O   .o.oo.  #$O+  X%   $O   .o.oo.  #$O+  X%  ",
"@#$O.&X    .o.  .X... O+@#$O.&X    .o.  .X... O+@#$O.&X ",
"$O+. $oo O    o oX..o.  $O+. $oo O    o oX..o.  $O+. $oo",
"  #  +@ o  .  ...oX.....  #  +@ o  .  ...oX.....  #  +@ ",
"oX&&  $O.XoooX&X.. X.oo.oX&&  $O.XoooX&X.. X.oo.oX&&  $O",
"XoooX    XooX%Xo. oX&&&XXoooX    XooX%Xo. oX&&&XXoooX   ",
".X o.&o&%o..oXo XXo   O .X o.&o&%o..oXo XXo   O .X o.&o&"
};
