/* XPM */
static char *_769a0f1c6014ff6d13773d32870780bU98xFcvLkSCLRErT[] = {
/* columns rows colors chars-per-pixel */
"56 56 238 2 ",
"   c None",
".  c #020101",
"X  c #390907",
"o  c #33150B",
"O  c #3A2419",
"+  c #2A1E24",
"@  c #271F28",
"#  c #2A242A",
"$  c #382929",
"%  c #2C2B31",
"&  c #322B35",
"*  c #383738",
"=  c #460A09",
"-  c #550C0C",
";  c #4D1411",
":  c #52160C",
">  c #681111",
",  c #731313",
"<  c #592506",
"1  c #4A2C1C",
"2  c #472714",
"3  c #562A18",
"4  c #4D311E",
"5  c #563317",
"6  c #502707",
"7  c #682C04",
"8  c #67360B",
"9  c #793505",
"0  c #653B13",
"q  c #732B10",
"w  c #472B25",
"e  c #4C3222",
"r  c #45332C",
"t  c #4A352A",
"y  c #543A2B",
"u  c #583924",
"i  c #493733",
"p  c #523D35",
"a  c #533F3A",
"s  c #5C282A",
"d  c #6C2C29",
"f  c #77460A",
"g  c #6B4314",
"h  c #745019",
"j  c #56423B",
"k  c #5B443C",
"l  c #5A4437",
"z  c #4D422E",
"x  c #63432C",
"c  c #694628",
"v  c #694A37",
"b  c #734E36",
"n  c #6E543C",
"m  c #785538",
"M  c #724F26",
"N  c #3C3C42",
"B  c #433E42",
"V  c #4B4B4A",
"C  c #464545",
"Z  c #554A46",
"A  c #5B5B5C",
"S  c #555456",
"D  c #654943",
"F  c #6C5446",
"G  c #795A46",
"H  c #695F59",
"J  c #7C6348",
"K  c #796555",
"L  c #6B6C6C",
"P  c #656466",
"I  c #7A7979",
"U  c #736E6F",
"Y  c #605D64",
"T  c #931B1D",
"R  c #891818",
"E  c #A81D1B",
"W  c #B51C19",
"Q  c #BC1E1C",
"!  c #88290C",
"~  c #962614",
"^  c #852D0B",
"/  c #A9251D",
"(  c #B6241B",
")  c #991E20",
"_  c #A81E22",
"`  c #982827",
"'  c #A92424",
"]  c #B82423",
"[  c #B13029",
"{  c #C31E1D",
"}  c #C2211F",
"|  c #CC2424",
" . c #C82927",
".. c #D52929",
"X. c #D52828",
"o. c #CB3839",
"O. c #88560A",
"+. c #925D09",
"@. c #845513",
"#. c #854905",
"$. c #9A6709",
"%. c #A87508",
"&. c #A8770B",
"*. c #825832",
"=. c #946B33",
"-. c #896434",
";. c #A0513F",
":. c #AE3E40",
">. c #855E45",
",. c #B94B4B",
"<. c #8B6649",
"1. c #856855",
"2. c #946D54",
"3. c #87735A",
"4. c #997458",
"5. c #93694C",
"6. c #A67859",
"7. c #B07D5B",
"8. c #887566",
"9. c #967B65",
"0. c #887C73",
"q. c #896964",
"w. c #A77D62",
"e. c #AA6E60",
"r. c #CC6F71",
"t. c #BA8709",
"y. c #AE8F17",
"u. c #C9960A",
"i. c #CE9A0A",
"p. c #D4A204",
"a. c #DCAA01",
"s. c #D9A709",
"d. c #C8A212",
"f. c #E2AF03",
"g. c #E5B302",
"h. c #E9B603",
"j. c #ECBA02",
"k. c #E5B30A",
"l. c #ECBB0A",
"z. c #EAB70C",
"x. c #F2BF04",
"c. c #F1BF0A",
"v. c #EBBA11",
"b. c #F4C202",
"n. c #FECC02",
"m. c #F8C707",
"M. c #FED317",
"N. c #FBD00B",
"B. c #FEE706",
"V. c #FEFE03",
"C. c #FEF707",
"Z. c #FFF51A",
"A. c #FEDA28",
"S. c #FFDE33",
"D. c #FEF524",
"F. c #FFE637",
"G. c #FEEF25",
"H. c #95857B",
"J. c #8D8174",
"K. c #A68766",
"L. c #B7896B",
"P. c #BC996A",
"I. c #BA9376",
"U. c #AA8E76",
"Y. c #A0835C",
"T. c #D5966C",
"R. c #D6986E",
"E. c #CB9C7C",
"W. c #C59676",
"Q. c #D69B73",
"!. c #D99D74",
"~. c #D99F79",
"^. c #D49F7B",
"/. c #C5956A",
"(. c #DAA27C",
"). c #D5A07B",
"_. c #838283",
"`. c #8C8C8C",
"'. c #888888",
"]. c #948D88",
"[. c #98928C",
"{. c #949492",
"}. c #9B9A9B",
"|. c #989898",
" X c #908E92",
".X c #A79487",
"XX c #B29B88",
"oX c #A79B97",
"OX c #BAA697",
"+X c #B2A192",
"@X c #BCBBBA",
"#X c #B8B4B6",
"$X c #B1A8A7",
"%X c #A09EA4",
"&X c #CF958C",
"*X c #CCA384",
"=X c #DBA682",
"-X c #DCA986",
";X c #DEAD8C",
":X c #D5A787",
">X c #D1B292",
",X c #E0AE8D",
"<X c #E0B08E",
"1X c #CBB8A5",
"2X c #C8BCB9",
"3X c #D4B4B4",
"4X c #D6A9AB",
"5X c #C6C2BE",
"6X c #D7C7BA",
"7X c #EAD8A8",
"8X c #F1DDAB",
"9X c #E8D3A7",
"0X c #F1E1AE",
"qX c #D6C296",
"wX c #BEBCC2",
"eX c #D2BFC1",
"rX c #C4C2C3",
"tX c #CDCACB",
"yX c #CAC5C4",
"uX c #D3CCCC",
"iX c #D1CED1",
"pX c #DCCFD5",
"aX c #D4D2D4",
"sX c #DCD9DB",
"dX c #D9D5D7",
"fX c #CECCD0",
"gX c #E9D7C4",
"hX c #E1DBDE",
"jX c #EDDBDE",
"kX c #F5E5D3",
"lX c #F8E8D6",
"zX c #F1E2CF",
"xX c #DFDCE1",
"cX c #E2DEE2",
"vX c #E5E2E5",
"bX c #E8E3E6",
"nX c #E9E5EA",
"mX c #E8E6EA",
/* pixels */
"                                          * * V A L U U U L A C * *                                             ",
"                                      * C P _. X].].].].H.].{. X_.P C *                                         ",
"                                  * C L `.].8.m M @.@.@.@.h M J 0.[.`.P z *                                     ",
"                              * & C _.|.8.M O.t.s.b.b.b.b.z.i.%.@.b J.}.I C & *                                 ",
"                          % * & C '.[.J f t.m.B.B.C.C.C.B.N.n.n.z.%.g 3.}._.C S _.Y *                           ",
"                      % V _.U C _.|.G f s.B.V.V.V.V.V.V.V.Z.M.n.n.m.t.g 3.}._.C {.aX#XL N                       ",
"                  % N _.fXrXV L }.1.f s.B.V.V.V.V.V.V.V.D.F.S.N.n.b.m.t.g 0.}.L C @XsXdX#XU *                   ",
"                % A @XcXvX`.C {.].g t.N.C.V.V.V.V.C.Z.G.F.S.M.n.n.b.b.m.$.M {.{.V _.aXaXdXsX$XA                 ",
"              & I dXcXhXsXP P }.3.f z.N.G.D.D.D.G.F.F.F.A.M.n.n.n.b.j.b.i.g J.}.P A iXaXtXaXhXiXI &             ",
"            & _.sXcXsXcXfXV I }.J +.m.n.A.F.F.F.S.A.A.M.n.n.n.n.n.b.j.x.z.f 8.}.I V rXdXaXtXtXsXcX XN           ",
"          # U hXxXsXhXvXtXC I }.G $.n.n.N.M.M.N.N.n.n.n.n.n.n.n.n.b.g.j.v.f K }._.C wXsXaXiXtXtXpX6Xq.$         ",
"        & s ,.&XpXsXcXvXfXC I }.1.O.m.n.n.n.n.n.n.n.n.n.n.n.n.n.b.j.g.j.k.f K |._.C #XsXaXaX3Xr.,.o.o.d &       ",
"        w [ |  .&XhXcXbXdXS L }.0.f s.n.n.n.n.n.n.n.n.n.n.n.n.b.j.h.f.m.u.0 0.}.U r m 4.XX&X,.Q W Q X. .s       ",
"      & d ..| { o.3XpX1X9.p S |.[.M %.m.b.b.b.n.n.n.n.n.n.b.x.j.h.a.j.c.O.v ].|.A h i.&.+.f ! ~ W W | X.` $     ",
"      w [ ..| | ( ;.-.O.t.&.z '.}.8.g u.m.b.j.x.b.b.b.b.x.j.h.f.a.j.m.%.0 U |.'.z y.N.n.m.s.&.#.9 ~ W X. .s &   ",
"      s  .X.( ~ 9 +.u.x.n.b.M A |.|.J f t.b.b.g.g.h.h.g.g.f.a.f.b.l.%.0 K {.|.A M v.n.n.n.n.n.l.t.O.9 /  .` &   ",
"    & d  ./ ^ +.i.x.n.n.n.n.d.z L |.{.K g $.s.b.b.j.g.g.g.g.x.l.i.O.c K  X}.L z d.n.n.n.n.n.n.n.b.z.t.#.! ' w   ",
"    # d ~ #.t.k.j.j.b.n.n.n.n.y.z U |.|.0.n h $.t.u.p.s.p.u.&.O.g n 0.{.|.L z y.n.n.n.n.n.n.n.n.x.j.j.s.%.9 1   ",
"    O 5 +.p.f.a.f.j.b.n.n.n.n.N.y.i Y `.}.{.0.K n c M h M c v K I  X}.`.A * g t.s.l.m.n.n.n.n.n.b.j.f.a.k.u.f 5 ",
"    5 O.s.p.p.a.g.j.b.n.n.m.s.t.$.c Z V L `.}.|. X'._._._._.`.|.}. XU C L $XXX2.*.@.$.u.l.n.n.n.b.j.g.a.p.m.%.< ",
"      f s.i.p.a.g.j.m.k.t.+.h 5.XX2XuX$XP V A I '.{.|.|.|.{.`.I Y V A %XsXbXvXsXuXOX9.m f %.s.m.b.j.g.a.p.b.%.8 ",
"      8 u.a.p.a.h.k.&.@.<..X5XhXbXnXnXmXhX#X_.A V C V V V S S P _.#XsXmXvXhXhXsXdXaXaX5Xe.! 9 +.u.l.h.a.a.m.$.c ",
"      0 $.k.p.g.t.@.<.+XuXsXsXsXvXvXhX5X+XH.8.G n l y y y D 8.oXtXcXbXvXhXsXsXdXaXiXuXtX3X,.E ! 9 +.i.k.h.l.f   ",
"        f k.k.%.*..XrXiXiXaXaXaX#XH.K G <.6.L.W.E.E.E.E.W.L.w.5.G 1.[.2XdXsXaXaXfXtXtXrXrXOX:.W E ~ 9 %.z.s.f   ",
"        0 %.$.5.6XcXiXtXtXtXaX.Xx 5.L.:X;X,X,X,X;X;X;X;X,X,X,X;X=XI.4.1.8.OXtXiXtXtXrXrX2X@XOXe. .| ] ^ O.+.0   ",
"          8 x 2XnXmXcXiXtXtXtXK 2.,X,X;X;X,X;X;X;X;X;X;X;X;X;X;X;X-X-X=XL.1.8.oXrXrXrX@X@X@XrXpX4Xr.o.[ 3 0     ",
"            $ P aXbXbXvXdXtX@Xn I.,X;X;X;X*X;X;X;X;X;X;X;X*X:X;X-X-X=X(.(.(.I.1..XrX@X@X@XyXsXbXnXjX3XD $       ",
"              % P fXbXvXbXcX#Xv *X,X;X;XI.$ K.,X;X;X;X,X*Xt 1.;X-X=X=X(.~.~.(.L.0.@X@X2XiXcXbXvXbXaXU &         ",
"                % S #XmXbXmX$Xb :X,X;X;XF . K <X;X;X;X<X9.. p ;X-X=X(.(.~.Q.(.I.3.5XiXhXvXbXbXbXwXS %           ",
"                  % N `.aXmXoXv :X,X;X;Xr . K <X;X;X;X<XF . i :X=X=X(.~.~.Q.(.I.8.hXvXvXbXbXxX}.B $             ",
"                      % S %XH.v :X,X;X;Xr . 9.<X;X;X;X<XF . F -X(.(.~.~.Q.R.(.L.8.vXbXmXvXwXL V 0.K l           ",
"                          & t v :X;X;X;Xk $ *X;X;X;X;X;X1.o L.=X(.(.~.~.Q.T.(.6.H.bXhX#XU * Z .X6XzX1Xl         ",
"                              u E.-X-X-XW.I.;X-X-X-X-X=XE.L.(.(.~.~.Q.R.T.Q.=X<.0.}.Y i $ F U.U.8.OXlX9.e       ",
"                              e w.;X=X=X=X=X=X=X=X=X=X(.E.(.).~.~.Q.R.T.T.~.W.u j P ].l K gXlXlXgXH.gXOXe       ",
"                              e b :X=X(.(.(.(.Q././.L.7.*.L.~.Q.Q.R.T.T.Q.=X<.G 6XzXgXx U.lXkXkXkX1XgXXXe       ",
"                                4 <.-X(.~.~.~.L.6.6.6.7.6.7.Q.R.T.T.T.~.=X6.u OXlXkXgXx 1.zXkXkXkXkXkX3.w       ",
"                                  4 <.E.=X).Q.Q.Q.Q.Q.Q.Q.R.T.T.T.Q.(.E.5.4 9.zXlXlXkX9.e OXkXlXlXkXOXy         ",
"                                    1 x 4.W.=X(.(.~.~.~.~.~.(.(.).W.4.x 2 F >X1X1X1X1X+Xx y .XOXXX8.y w         ",
"                                      1 5 u m 5.6.w.w.6.w.w.4.<.b u x 5 2 e y y y y y y e 1 e e e t O + #       ",
"                                    1 5.I.2 3 3 3 3 3 3 3 3 2 2 2 m *XL.>.u y k D v k k j p i t t Z $ + + #     ",
"                              w 4 2 m 9X8X1.- ' ] / / ' ` > ; 3.4.x E.=X=XI.G e y v D k k a p i t p j + $ +     ",
"                            e m >.5 >X0X0X9XG - T ] ] R - m *X8XqXu 6.-X=X-X:Xw.x e l k k a p i t t Z $ + #     ",
"                        1 b 6.Q.*.<.7X8X8X8X7XU.u : - s I.7X0X8X8X2.x *X;X-X-X;X*X2.u y k a p i t r k i + @     ",
"                      e <./.~.^.u J >XqX9X7X7X8X9XI.9.>X8X7X7X0X8X>Xu 2.;X,X;X=X=X-XL.x e p p i t r j j +       ",
"                    e 5.T.R.(.W.O o 2 4 x -.=.=.=.=.=.=.=.=.=.Y.3.n 2 u W.;X;X-XQ.Q.(.W.b e y i t r j j +       ",
"                  e b ).~.^.=XW.2 < 9 7 7 9 u.p.p.p.p.p.p.i.#.< < < 7 6 m :X;X-X(.Q.T.Q.W.b e t r r j j +       ",
"                    x 2.2.G <.w.2 6 ^ 9 7 f s.m.n.n.n.n.n.l.O.9 ^ 9 9 8 5 L.;X-XW.E.(.(.;X4.1 r r r k i +       ",
"                              e O o 6 6 6 f i.g.l.x.x.x.h.s.f 7 7 7 < < 2 <.:XW.b x 5.w.4.x w r r j k $         ",
"                              X = : 2 n m g $.$.$.$.$.$.$.+.< X X X X X o 1 x u t y e e e w r y k j $ +         ",
"                          X - R ] ] q b Y.K.P.P.P.P./.P.<.= - R _ ' ' E R > = o e k j a a j j a r $             ",
"                        X > ' } | X.| / q d b <.K.K.K.K.3 ,  ...X.X...X...| ' , X w i i r $ $ #                 ",
"                        = _ Q W Q | | X. .] / ~ R ; 2 1 = ' | X...X.X...| | { ] , X                             ",
"                        = ' { W W W Q } } { { | ) X     = ] { } | | | | } Q W Q ' =                             ",
"                        X > ' ] ] ] } } } ] ] T -       X R  .} Q Q { Q Q W Q | T X                             ",
"                            = - > > > > > > - X           X > T _ E E _ E E ) , =                               ",
"                                                              X = ; ; ; ; = =                                   "
};
