/* XPM */
static char *c4355a85305b4cdd9c53f631c21c5a8f9g6N5dbh5urrslCF[] = {
/* columns rows colors chars-per-pixel */
"56 56 225 2 ",
"   c None",
".  c #163D20",
"X  c #223E3B",
"o  c #25373B",
"O  c #303C38",
"+  c #0B4C04",
"@  c #0C4E0B",
"#  c #034703",
"$  c #124C0D",
"%  c #194B0D",
"&  c #0D530C",
"*  c #0E5805",
"=  c #13540D",
"-  c #145A0D",
";  c #195D0C",
":  c #155306",
">  c #0D4C15",
",  c #124C16",
"<  c #154C1B",
"1  c #1C4A1B",
"2  c #0E5113",
"3  c #0D5A19",
"4  c #135513",
"5  c #1A5514",
"6  c #145B14",
"7  c #1B5C14",
"8  c #14541B",
"9  c #1B551C",
"0  c #155B1A",
"q  c #1B5B1B",
"w  c #235D0B",
"e  c #2D5F0F",
"r  c #245C14",
"t  c #2B5D15",
"y  c #235B1D",
"u  c #295A1A",
"i  c #24571C",
"p  c #1A650D",
"a  c #176213",
"s  c #1C6214",
"d  c #1F6B14",
"f  c #1C641C",
"g  c #1C691C",
"h  c #24640E",
"j  c #276409",
"k  c #246315",
"l  c #2C6413",
"z  c #236A16",
"x  c #23641C",
"c  c #2A651C",
"v  c #236A1C",
"b  c #2A6C1D",
"n  c #2C761D",
"m  c #0F4C20",
"M  c #164325",
"N  c #1A4329",
"B  c #184829",
"V  c #0E5122",
"C  c #1A5422",
"Z  c #1C5D22",
"A  c #195826",
"S  c #194432",
"D  c #1D4B31",
"F  c #174A39",
"G  c #23452B",
"H  c #244728",
"J  c #245524",
"K  c #265A27",
"L  c #305929",
"P  c #244935",
"I  c #25413A",
"U  c #314339",
"Y  c #27583A",
"T  c #345739",
"R  c #1E6522",
"E  c #1D6A21",
"W  c #1D672B",
"Q  c #166225",
"!  c #1D6535",
"~  c #236522",
"^  c #2A6524",
"/  c #236B23",
"(  c #2B6C26",
")  c #25642A",
"_  c #2C632B",
"`  c #256C2A",
"'  c #2B6C2B",
"]  c #267227",
"[  c #2B7326",
"{  c #2C742C",
"}  c #2C792C",
"|  c #297828",
" . c #32752C",
".. c #327A2D",
"X. c #367526",
"o. c #2D6636",
"O. c #35683A",
"+. c #2E7533",
"@. c #2D7B32",
"#. c #2C7939",
"$. c #337633",
"%. c #337B33",
"&. c #3A7C32",
"*. c #347B39",
"=. c #3B7B3A",
"-. c #3B7733",
";. c #356D2C",
":. c #1F3D40",
">. c #203349",
",. c #2B3C4B",
"<. c #243B46",
"1. c #342E52",
"2. c #2A3C52",
"3. c #2C345B",
"4. c #273955",
"5. c #34345A",
"6. c #303B5A",
"7. c #383956",
"8. c #272A5D",
"9. c #2A2A67",
"0. c #342C6F",
"q. c #2C3666",
"w. c #363462",
"e. c #383569",
"r. c #383479",
"t. c #383677",
"y. c #2B2F76",
"u. c #483C7D",
"i. c #473775",
"p. c #1C4743",
"a. c #244244",
"s. c #294444",
"d. c #344847",
"f. c #2E5741",
"g. c #2C4655",
"h. c #3A4B56",
"j. c #365657",
"k. c #2F6241",
"l. c #347D41",
"z. c #3A7349",
"x. c #3F6055",
"c. c #3B6F49",
"v. c #3A4B64",
"b. c #3E436D",
"n. c #3B4265",
"m. c #3D4773",
"M. c #466757",
"N. c #507E56",
"B. c #44664D",
"V. c #444767",
"C. c #41516B",
"Z. c #444878",
"A. c #4C5071",
"S. c #515677",
"D. c #547869",
"F. c #2E802E",
"G. c #2F8137",
"H. c #368137",
"J. c #3B8334",
"K. c #3D853C",
"L. c #3C8A3C",
"P. c #3A8A38",
"I. c #3E903E",
"U. c #44853D",
"Y. c #438B3D",
"T. c #4A8C3F",
"R. c #528B3E",
"E. c #45913E",
"W. c #4B913D",
"Q. c #3D8B41",
"!. c #3D9043",
"~. c #448742",
"^. c #448C43",
"/. c #4A8D44",
"(. c #448C4B",
"). c #498E4A",
"_. c #4B8446",
"`. c #518C44",
"'. c #51884F",
"]. c #449244",
"[. c #4A9145",
"{. c #45924A",
"}. c #4B924A",
"|. c #538B59",
" X c #469152",
".X c #4D9450",
"XX c #51934C",
"oX c #5DA45C",
"OX c #5CAB5E",
"+X c #58A857",
"@X c #62A65E",
"#X c #64AA5B",
"$X c #69A95A",
"%X c #558265",
"&X c #649E6B",
"*X c #5CA664",
"=X c #5FB463",
"-X c #5FAA71",
";X c #6AA764",
":X c #64AC63",
">X c #6CAD65",
",X c #63A769",
"<X c #65AD69",
"1X c #6AAC69",
"2X c #66A767",
"3X c #70AF69",
"4X c #68B163",
"5X c #65B266",
"6X c #63AC73",
"7X c #64B173",
"8X c #3F3081",
"9X c #4C4F96",
"0X c #60579B",
"qX c #6E7299",
"wX c #74A088",
"eX c #8ACD85",
"rX c #8CD68A",
"tX c #94D38E",
"yX c #94D98E",
"uX c #94D787",
"iX c #8CD796",
"pX c #92D695",
"aX c #9BDB9C",
"sX c #91DA95",
"dX c #93E092",
/* pixels */
"                                                                                                                ",
"                                                                                                                ",
"                                                                                                                ",
"                                                                                                                ",
"                                                                                                                ",
"                                                u.e.3.q.8X                                                      ",
"                                            V.h.f.Y K K G o 5.                                                  ",
"                                m.v.v.v.h.d.T _ $./ p d s 5 N X 2.3.3.r.                                        ",
"                            Z.j.Y z.z.O.o.K Z %.].| g / a & 9 J J T T T I 5.                                    ",
"                          Z.f.$.$.} ] %.} v 0 ^.Y.P...f f & f ( -.X.c k : H 0.                                  ",
"                        s.L -.Y.~.$.H.` $.` q /.>X`.X.w b * s [ ~. .k k ; 9 N q.                                ",
"                    t.d.K k X.W.>X~.$.+.*.W /  .;X$XR.l r 7 [ { :X/.v s - 6 2 F                                 ",
"                  A.x.z.$.p z U.~.pX^.$.{ E ~ $.T.$X`. .q / } ].<XY.v f 6 8 V B F g.                            ",
"                V.B.|.,X(.f z ..).3X}.Y.{ } E / Y.#X/.$./ R } :X/. .a g 0 8 m > & , s.u.                        ",
"                M._.,X7X-X Xv z  .Y.oX{.@.G.g f *.<X1X .7 / }.:X~.[ 7 q > , 4 4 = $ < s.b.                      ",
"              9XB./.sXiX6X6X~.v v ..^.5X^.| E g +.(.2X%.v  .@X/...g 5 7 $ 4 5 5 r 5 & > P m.                    ",
"              m.O.W.,XsXiXsX1X~.v ..{ ].OX..} v / ).@X$./  .:X{ g g = = $ 5 4 ( q 4 0 6 , g.                    ",
"              j._ ; +.(.).:XtX}.K./ %.[ }.Y.%./ g ^.:X{ ( @X~.*./ 6 x = c ( / q 9 0 0 6 & s.                    ",
"            C.N._.XX/ W ' g Y.oX:X].a %.$.^.^.{ / ..<Xg [ ^.%.f v 7 # *.~ { R ` 9 ^ 8 Z 0 N i.                  ",
"            D._.;X2X(.(.K.}./ g ^.K.}.g { } }.$.g $.:Xg }.^./ / 6 x *.(.$.^.` { ~ y K q 0 B 1.                  ",
"          0X%X#X1XpX:X<X:XK.].Q.g / }.] E H./ $.g $.~./ :X[ / 6 f &./.Y.Y.{ @./ x c 7 q 0 M 5.                  ",
"          Z.|.Y.oX1XsXyX$X#X5XQ.^.^.f @.%.g } { *.f {./ }./ R g %./.[.} { ^.@.{ ^ 7 x = 2 D 8.                  ",
"          S.c.^.Y.].^.}.Y.Y.Q.5X:X^.^./ g *.f %.[ ` { g { g q %.{ [ [ ..../ ~ ~ f 7 - - & S r.                  ",
"          b.k.} E.Y.(.(.Y.[.^.~.^.~.} $.{ g / 6 *.q *.q ~ 0 R R E g } / 7 7 0 7 - = & & & B                     ",
"          0.Y g } | #.l.+.......{ $.{ / f / 2 / q 4 x ~ 6 / ~ 0 6 f a f = q 4 6 6 7 0 0 0 C 2.                  ",
"            D a g / W Q / = : - / / & 6 7 # 6 & @ 4 = 6 & + 0 $.%.^.K.~.%.~ ` f s f Z 9 0 C P e.                ",
"            D...6 3 3 0 = ( &. ./. .x & & 7 7 = & 4 & # & ~ q ~  .%.$.^./.$.+.R k k u y 9 9 9 ,.                ",
"            wX~.+.+.Q f $.).oX~ g & & / { { / / x 6 4 6 4 ~ x 7 x x { } ..[ / / k h t u 9 9 5 X                 ",
"            %X*.R ` & [.:X/.~ 6 & / ^.K.[.$.[ / $.{ g g f $.*.x c k v d d v R / h j e t 9 A 6 X                 ",
"          qXc.f / = 4XrX/.~ & f Q.L.^.^.}.$./ { ^.*.$.6 [ <X^. .( b a a s x ~ x h j e u 9 C 4 I                 ",
"          n.o.* ; T.yX~.) 3 E !.].:X].{.] f %.^.^.] %.f ] oX^.^.%.%.%.[ ^ 5 y x h h u i q 4 4 a.                ",
"          b.C d Y.uXU./ 8 Z {.OXOX].^.} / ..Y.:X^.H.[ / f ].<X~.^.@.Q.$.-.^ 5 7 ; 7 5 9 9 , , ,.                ",
"          t.Y }.sX4XY.z W  X*X<X].^.%.+.x ..>X$X}. . .v s ..<X,X{.P.G.]. . .x x & & = $ % 1 S q.                ",
"            j.&X,X^.v z (.*XaX,XK.} { ` %./.yXY.~.%.{ z v  .).pX:XL.} ] /.&.c x q 4 & $ % H ,.                  ",
"            7.T '.f s [.1XaX1XU.J...R +.^.OX4X]. X` *.] - z U.>XtX3X%.$.}.{ ' ^ ~ q 6 & $ G e.                  ",
"              7.T ' [.#XeXaX;X/.[ f 6 +.Y.rX+X].#.+.#.f f v &.T.tX>XU.%.{ %.=.x ~ x f 4 M ,.                    ",
"                6.M /.#XaX;XT. .~ ` R ~.4X#XE.].[ *.+.f ` f  ./.].rX).%. .v ..s z c c C a.                      ",
"                  <.|.E.^.^.....) > *.}.eX4XE.Y.%.{ %.` 2 R $. .Q.{.sX^...z p b k x x H q.                      ",
"                  9.Y ..F.| %./ @ ` { <XdXL.L.].| { / f & ( ~.$.$.{.Q.=XP.n k k k r t H r.                      ",
"                    4.f.f g / & & f }.:X*X].I.| @.} g f - z :X/.$.{ @.!.]...v k k t L d.                        ",
"                      q.M @ < 8 @ / (.,X:XE.J...$.=.~ f * v #X^.`.^ +.l.Q.]...x r J U e.                        ",
"                        6.a.<.S 8 x { ^.^.Y.&. .=.q ^ 5 + a ..:X/.;.^ +.+.%.} R q P e.                          ",
"                              q.N x &...{ { {  . .c x + = / s [ ].%.; z ..#.G.W D 6.                            ",
"                                4.N o.y $.+.+.` v k $ < D B J _ } } k h x Z ! p.6.                              ",
"                                  9.s.. _ ~ R 3 R < S a.4.>.o T _ c w w l L g.y.                                ",
"                                      w.,.:.p.a.:.>.e.        w.>.s.d.U O 7.                                    ",
"                                                                                                                ",
"                                                                                                                ",
"                                                                                                                ",
"                                                                                                                ",
"                                                                                                                ",
"                                                                                                                ",
"                                                                                                                ",
"                                                                                                                ",
"                                                                                                                ",
"                                                                                                                "
};
